:SAMPLES-PER-SECOND 30
:FULLY-SPECIFIED
:DEGREES
246
root  -17.8316 28.8609 0.902018 10.9137 -8.6432 -0.371567
RightUpLeg  -25.7566 8.51324 14.4138
RightLeg  54.1475 -4.76338 -5.80267
RightFoot  -32.3135 0.885296 3.43278
RightToes  -12.4555 -0.0435107 -0.113572
Spine  12.2513 -2.21623 -7.55199
Spine1  18.4257 0.364675 -18.6512
HEad  -51.4642 -27.987 29.3094
LeftShoulder1  0 -2.42657e-020 -4.95415e-022
LeftArm  -5.07836 -22.9602 -80.3152
LeftForeArm  52.8915 -38.0277 -7.89359
LeftHand  0.324352 -14.7851 -2.8708
RightShoulder  0 2.42657e-020 1.07489e-018
RightArm  -2.26946 41.0379 85.7503
RightForeArm  48.2894 22.6735 4.19671
RightHand  1.85724 26.85 8.14144
LeftUpLeg  -51.8893 -1.44867 3.66109
LeftLeg  78.9265 0.805217 3.02809
LeftFoot  -8.95136 -0.0483867 -0.618168
LeftToes  -19.3497 1.28829e-006 1.15665e-007
247
root  -18.243 29.3509 1.44076 13.527 -8.48093 0.672577
RightUpLeg  -25.354 9.37808 13.6115
RightLeg  49.8578 -5.6061 -5.85419
RightFoot  -31.2715 0.914157 3.64308
RightToes  -8.90909 -0.028621 -0.0822382
Spine  12.1673 -1.30846 -7.97751
Spine1  18.189 2.1579 -18.7449
HEad  -47.1403 -27.9096 25.8227
LeftShoulder1  0 -2.42657e-020 -4.95415e-022
LeftArm  -7.9184 -24.5126 -81.3063
LeftForeArm  50.2145 -38.2926 -7.97568
LeftHand  0.225225 -13.7158 -2.2436
RightShoulder  0 2.42657e-020 1.07489e-018
RightArm  1.29982 39.031 88.3378
RightForeArm  50.5844 21.5918 3.96998
RightHand  1.52902 27.0469 6.72276
LeftUpLeg  -55.6684 -2.21702 1.40887
LeftLeg  70.4234 1.02394 2.36466
LeftFoot  -9.14902 -0.0328609 -0.410715
LeftToes  -18.8932 1.28829e-006 1.15665e-007
248
root  -18.6261 29.8299 2.21674 15.4077 -8.59724 2.11295
RightUpLeg  -23.7216 9.78588 12.37
RightLeg  45.1314 -6.19343 -5.47275
RightFoot  -30.0221 0.855066 3.56556
RightToes  -6.2078 -0.0185963 -0.0577872
Spine  12.3414 -0.28054 -8.44324
Spine1  18.1753 4.47691 -19.3982
HEad  -42.7551 -26.7573 21.8882
LeftShoulder1  0 -2.42657e-020 -4.95415e-022
LeftArm  -11.2406 -25.5449 -81.3047
LeftForeArm  47.3141 -38.6357 -8.08117
LeftHand  0.129017 -12.9098 -1.51106
RightShoulder  0 2.42657e-020 1.07489e-018
RightArm  2.70562 38.334 91.1559
RightForeArm  54.2517 19.4703 3.53602
RightHand  2.06508 27.4013 8.82839
LeftUpLeg  -57.4007 -3.26348 -1.21249
LeftLeg  60.4834 1.10726 1.68086
LeftFoot  -8.15545 -0.00646586 -0.0907069
LeftToes  -21.1037 1.28829e-006 1.15665e-007
249
root  -19.0181 30.2344 3.17412 17.128 -8.71231 3.24702
RightUpLeg  -21.4937 10.2247 11.5021
RightLeg  40.2086 -7.01323 -5.18747
RightFoot  -28.8566 0.838699 3.63665
RightToes  -1.96803 -0.00521608 -0.0185336
Spine  12.1599 0.688546 -8.66843
Spine1  17.7455 6.48193 -19.6196
HEad  -36.3923 -25.1287 16.1616
LeftShoulder1  0 -2.42657e-020 -4.95415e-022
LeftArm  -14.6641 -25.1421 -80.278
LeftForeArm  44.8544 -38.8257 -8.14115
LeftHand  0.0810139 -12.3055 -1.12208
RightShoulder  0 2.42657e-020 1.07489e-018
RightArm  2.10905 37.5909 93.9053
RightForeArm  57.2774 16.5468 2.95999
RightHand  2.52118 27.4124 10.6835
LeftUpLeg  -58.2043 -3.9255 -3.68785
LeftLeg  50.7042 1.15425 1.23086
LeftFoot  -6.66179 0.00985976 0.169401
LeftToes  -23.1717 1.28829e-006 1.15665e-007
250
root  -19.4206 30.4988 4.27907 18.5907 -9.23445 4.34967
RightUpLeg  -19.177 9.03968 10.6308
RightLeg  35.9646 -6.43091 -4.06136
RightFoot  -27.4987 0.637384 2.98211
RightToes  0.792278 0.00191964 0.0075099
Spine  11.5054 1.63115 -8.95817
Spine1  16.6387 8.19557 -19.8947
HEad  -28.0407 -22.568 9.40785
LeftShoulder1  0 -2.42657e-020 -4.95415e-022
LeftArm  -18.2553 -23.5089 -78.0241
LeftForeArm  42.7439 -38.3273 -7.99854
LeftHand  0.0829746 -11.6115 -1.18669
RightShoulder  0 2.42657e-020 1.07489e-018
RightArm  -1.15046 35.9826 96.6066
RightForeArm  62.2658 13.912 2.45081
RightHand  2.30748 26.9888 9.96658
LeftUpLeg  -58.472 -4.48627 -6.07887
LeftLeg  43 0.99737 0.810871
LeftFoot  -6.01565 0.0185118 0.352296
LeftToes  -24.5054 1.28829e-006 1.15665e-007
251
root  -19.8649 30.6044 5.52814 19.4654 -10.0417 5.29842
RightUpLeg  -16.9801 6.85633 10.1149
RightLeg  33.6018 -5.32083 -3.06622
RightFoot  -26.1191 0.438183 2.26647
RightToes  3.36259 0.00742934 0.0320439
Spine  10.8261 2.42228 -9.17014
Spine1  15.733 9.40228 -19.7674
HEad  -19.1168 -17.8935 1.79522
LeftShoulder1  0 -2.42657e-020 -4.95415e-022
LeftArm  -22.5905 -21.5254 -75.3617
LeftForeArm  42.1669 -36.6777 -7.53099
LeftHand  0.115085 -11.3097 -1.53311
RightShoulder  0 2.42657e-020 1.07489e-018
RightArm  -4.84926 33.9891 98.2998
RightForeArm  65.091 12.8214 2.24154
RightHand  1.79729 26.5939 7.96622
LeftUpLeg  -58.3692 -4.84038 -8.14232
LeftLeg  39.7721 -0.953533 -0.700308
LeftFoot  -5.36611 0.0327731 0.699329
LeftToes  -20.8366 1.28829e-006 1.15665e-007
252
root  -20.3533 30.5571 6.93375 19.4895 -10.6778 6.21223
RightUpLeg  -14.9751 4.8871 9.80043
RightLeg  33.9084 -4.75019 -2.77439
RightFoot  -24.1845 0.328602 1.91132
RightToes  -1.32847 -0.00345121 -0.0125305
Spine  10.461 2.9182 -9.29775
Spine1  15.3681 10.0834 -19.5204
HEad  -11.4695 -10.7897 -5.03008
LeftShoulder1  0 -2.42657e-020 -4.95415e-022
LeftArm  -28.4508 -19.5931 -72.8636
LeftForeArm  42.5057 -33.6898 -6.73263
LeftHand  0.138801 -11.5914 -1.7384
RightShoulder  0 2.42657e-020 1.07489e-018
RightArm  -7.1024 31.4013 99.0892
RightForeArm  64.5651 13.7731 2.41945
RightHand  1.39584 26.348 6.32976
LeftUpLeg  -57.4112 -7.29871 -8.33157
LeftLeg  40.7954 -2.39911 -1.81967
LeftFoot  -4.59331 0.0369736 0.921876
LeftToes  -14.4327 1.28829e-006 1.15665e-007
253
root  -20.8893 30.4015 8.53242 18.3089 -11.6555 7.10278
RightUpLeg  -13.3227 1.81494 9.04655
RightLeg  37.6961 -2.81493 -1.91639
RightFoot  -20.8784 0.114378 0.99838
RightToes  -10.404 -0.0346607 -0.0955581
Spine  10.6228 3.36125 -9.46886
Spine1  15.7353 10.9127 -19.5916
HEad  -6.28989 -1.97683 -10.3656
LeftShoulder1  0 -2.42657e-020 -4.95415e-022
LeftArm  -35.3148 -17.6181 -70.5831
LeftForeArm  43.2996 -30.508 -5.94266
LeftHand  0.158857 -11.2574 -1.98289
RightShoulder  0 2.42657e-020 1.07489e-018
RightArm  -8.19531 28.4537 99.2388
RightForeArm  62.148 15.8607 2.81816
RightHand  1.01482 26.4341 4.69009
LeftUpLeg  -55.0505 -10.0957 -7.68329
LeftLeg  43.4385 -2.87334 -2.39389
LeftFoot  -6.81456 0.0682721 1.14664
LeftToes  -8.53412 1.28829e-006 1.15665e-007
254
root  -21.5296 30.2294 10.0635 17.1507 -12.7944 6.92416
RightUpLeg  -14.885 -3.01125 8.66897
RightLeg  46.882 0.0245039 -0.0145184
RightFoot  -11.8103 -0.0373861 0.0160906
RightToes  -35.3958 -0.182787 -0.287664
Spine  10.9382 3.96777 -9.31591
Spine1  16.5858 11.9992 -19.005
HEad  -4.42439 5.94403 -13.4122
LeftShoulder1  0 -2.42657e-020 -4.95415e-022
LeftArm  -40.5445 -15.6467 -69.0183
LeftForeArm  43.1976 -28.4836 -5.46849
LeftHand  0.226811 -10.8048 -2.76971
RightShoulder  0 2.42657e-020 1.07489e-018
RightArm  -9.50663 25.8393 98.2677
RightForeArm  59.0207 17.8346 3.2048
RightHand  0.405954 26.4949 2.09474
LeftUpLeg  -53.2786 -11.5238 -6.31516
LeftLeg  46.9018 -1.34489 -1.27021
LeftFoot  -5.59119 0.044696 0.915289
LeftToes  -12.8976 1.28829e-006 1.15665e-007
255
root  -22.1935 30.0754 11.6936 15.3447 -13.142 6.82843
RightUpLeg  -18.6568 -9.24607 7.65279
RightLeg  60.046 1.51866 2.19313
RightFoot  -1.63893 -0.0025142 0.201858
RightToes  -42.1407 -0.235806 -0.326893
Spine  11.4942 4.2163 -8.86616
Spine1  17.8219 12.4958 -18.5124
HEad  -3.23904 13.2963 -15.4162
LeftShoulder1  0 -2.42657e-020 -4.95415e-022
LeftArm  -43.7155 -13.1321 -68.0494
LeftForeArm  42.7561 -27.7299 -5.29734
LeftHand  0.220395 -10.7277 -2.7187
RightShoulder  0 2.42657e-020 1.07489e-018
RightArm  -8.71714 24.0333 96.7797
RightForeArm  55.4942 18.4288 3.32821
RightHand  -0.177695 26.5691 -0.382674
LeftUpLeg  -49.9961 -10.545 -6.80692
LeftLeg  49.9768 -1.85752 -1.9498
LeftFoot  -8.70801 0.0828607 1.08825
LeftToes  -9.90953 1.28829e-006 1.15665e-007
256
root  -22.8704 29.9771 13.4141 12.9647 -13.9988 6.96634
RightUpLeg  -23.1922 -13.1684 6.03919
RightLeg  73.1895 0.80209 1.93205
RightFoot  1.50139 -0.00113979 0.464321
RightToes  -44.6167 -0.256373 -0.339688
Spine  11.6266 4.34043 -8.2726
Spine1  18.4436 12.562 -17.8372
HEad  -0.520587 20.6019 -16.8521
LeftShoulder1  0 -2.42657e-020 -4.95415e-022
LeftArm  -42.9834 -9.34661 -67.7198
LeftForeArm  41.8172 -27.6132 -5.27224
LeftHand  0.209981 -10.4118 -2.67607
RightShoulder  0 2.42657e-020 1.07489e-018
RightArm  -8.75143 21.5403 95.0286
RightForeArm  54.6803 18.759 3.39466
RightHand  -0.567251 26.1952 -2.06821
LeftUpLeg  -45.3357 -8.55986 -7.75815
LeftLeg  52.2102 -2.36015 -2.67566
LeftFoot  -12.8244 0.151314 1.34634
LeftToes  -8.17169 1.28829e-006 1.15665e-007
257
root  -23.6346 30.15 15.0669 11.5363 -14.584 6.5106
RightUpLeg  -29.5071 -14.0961 5.65563
RightLeg  82.1857 0.0991161 0.0154278
RightFoot  -4.22922 -0.00122284 0.344488
RightToes  -37.1124 -0.195837 -0.298236
Spine  11.2701 4.23363 -7.43847
Spine1  18.4206 11.8937 -16.4503
HEad  1.38372 26.3616 -17.6036
LeftShoulder1  0 -2.42657e-020 -4.95415e-022
LeftArm  -39.9067 -5.55795 -68.1681
LeftForeArm  42.499 -27.8358 -5.32167
LeftHand  0.302574 -11.04 -3.50225
RightShoulder  0 2.42657e-020 1.07489e-018
RightArm  -10.7373 17.2502 92.7679
RightForeArm  53.9554 20.5228 3.74691
RightHand  -0.522269 25.7251 -1.91737
LeftUpLeg  -40.1824 -6.9603 -7.49974
LeftLeg  51.6823 -2.8245 -3.14045
LeftFoot  -15.6048 0.207832 1.51664
LeftToes  -9.87358 1.28829e-006 1.15665e-007
258
root  -24.4381 30.617 16.6797 10.6605 -15.047 6.13115
RightUpLeg  -36.3097 -12.44 4.87497
RightLeg  85.0185 -0.0913633 -1.26526
RightFoot  -5.83031 -0.00133238 0.351426
RightToes  -37.4681 -0.19858 -0.300378
Spine  10.8342 3.95886 -6.60553
Spine1  18.3988 10.6912 -14.6444
HEad  3.32427 30.9775 -18.4977
LeftShoulder1  0 -2.42657e-020 -4.95415e-022
LeftArm  -35.5372 -2.42531 -69.5292
LeftForeArm  44.0425 -28.4607 -5.462
LeftHand  0.392841 -11.6797 -4.21185
RightShoulder  0 2.42657e-020 1.07489e-018
RightArm  -12.8414 12.602 90.0022
RightForeArm  52.5506 22.3185 4.11556
RightHand  -0.455223 25.4358 -1.64724
LeftUpLeg  -34.2275 -6.34801 -6.9088
LeftLeg  48.2569 -2.92888 -2.88909
LeftFoot  -16.4316 0.20013 1.38602
LeftToes  -12.1535 1.28829e-006 1.15665e-007
259
root  -25.3333 31.2443 18.2839 9.92827 -14.659 5.01877
RightUpLeg  -41.2955 -9.66549 3.50723
RightLeg  81.4865 -0.338058 -2.00049
RightFoot  -8.07203 0.000138108 0.379539
RightToes  -33.7757 -0.170766 -0.277333
Spine  10.5399 3.5125 -5.37293
Spine1  18.6644 9.10167 -12.01
HEad  5.53261 35.1818 -20.1152
LeftShoulder1  0 -2.42657e-020 -4.95415e-022
LeftArm  -31.23 -0.0669314 -72.182
LeftForeArm  44.7129 -29.2609 -5.64607
LeftHand  0.40731 -12.0338 -4.23524
RightShoulder  0 2.42657e-020 1.07489e-018
RightArm  -14.1045 8.39451 86.4199
RightForeArm  51.0408 23.3336 4.32959
RightHand  -0.633653 25.318 -2.4512
LeftUpLeg  -27.4295 -6.25564 -5.44905
LeftLeg  43.207 -3.2859 -2.71354
LeftFoot  -16.7259 0.193272 1.31465
LeftToes  -11.0847 1.28829e-006 1.15665e-007
